PathFileType	4	(X/Y/Z)	/Users/itak/Documents/Research/Walk-IL/dataset/trc/00400_00012.trc
DataRate	CameraRate	NumFrames	NumMarkers	Units	OrigDataRate	OrigDataStartFrame	OrigNumFrames
100.000000	100.000000	4	53	mm	100.000000	486	649
Frame#	Time	RPSI			LPSI			L3			STRN			T10			C7			CLAV			RBAK			LBAK			LSHO			LUPA			LAEL			LAOL			LWTS			LWPS			LFRA			LIFD			LHPS			LHTS			RSHO			RUPA			RAEL			RAOL			RWTS			RWPS			RFRA			RIFD			RHTS			RHPS			RBHD			LFHD			RFHD			LBHD			LHIP			RHIP			RASI			LASI			LKNE			LTHI			LANK			LTIP			LTOE			LMT1			LMT5			LHEE			RKNE			RTHI			RANK			RTIP			RTOE			RMT1			RMT5			RHEE			
		X1	Y1	Z1	X2	Y2	Z2	X3	Y3	Z3	X4	Y4	Z4	X5	Y5	Z5	X6	Y6	Z6	X7	Y7	Z7	X8	Y8	Z8	X9	Y9	Z9	X10	Y10	Z10	X11	Y11	Z11	X12	Y12	Z12	X13	Y13	Z13	X14	Y14	Z14	X15	Y15	Z15	X16	Y16	Z16	X17	Y17	Z17	X18	Y18	Z18	X19	Y19	Z19	X20	Y20	Z20	X21	Y21	Z21	X22	Y22	Z22	X23	Y23	Z23	X24	Y24	Z24	X25	Y25	Z25	X26	Y26	Z26	X27	Y27	Z27	X28	Y28	Z28	X29	Y29	Z29	X30	Y30	Z30	X31	Y31	Z31	X32	Y32	Z32	X33	Y33	Z33	X34	Y34	Z34	X35	Y35	Z35	X36	Y36	Z36	X37	Y37	Z37	X38	Y38	Z38	X39	Y39	Z39	X40	Y40	Z40	X41	Y41	Z41	X42	Y42	Z42	X43	Y43	Z43	X44	Y44	Z44	X45	Y45	Z45	X46	Y46	Z46	X47	Y47	Z47	X48	Y48	Z48	X49	Y49	Z49	X50	Y50	Z50	X51	Y51	Z51	X52	Y52	Z52	X53	Y53	Z53	

487	4.86	-501.4635009765625	956.5331420898438	-506.999267578125	-400.2102355957031	945.67578125	-421.1370239257812	-453.1449890136719	1036.828002929688	-463.7869873046875	-611.3933715820312	1195.248779296875	-291.2765197753906	-445.59716796875	1137.439453125	-470.8037414550781	-452.0028991699219	1387.872436523438	-435.0712280273438	-567.3262329101562	1313.154418945312	-327.2113647460938	-473.19873046875	1245.586303710938	-515.7562255859375	-368.4319152832031	1345.287109375	-377.7436828613281	-390.6578369140625	1359.5556640625	-280.7244873046875	-320.3406677246094	1244.741577148438	-265.5623168945312	-297.6045532226562	1047.918701171875	-255.9156646728516	-316.4129333496094	1032.00244140625	-338.2884826660156	-389.6394348144531	841.8452758789062	-196.1632080078125	-309.6730651855469	825.3638916015625	-201.5748291015625	-297.9075012207031	945.5297241210938	-236.4086456298828	-393.3395690917969	662.843505859375	-193.1498870849609	-329.4546508789062	739.7271118164062	-196.1264801025391	-386.1221618652344	744.8085327148438	-170.4282073974609	-602.21826171875	1375.547119140625	-506.0522766113281	-628.1435546875	1312.7060546875	-559.9568481445312	-654.3411865234375	1053.815307617188	-608.8572387695312	-593.2146606445312	1038.056762695312	-537.1473388671875	-800.9356079101562	885.5442504882812	-497.9961242675781	-803.8179931640625	866.0545043945312	-569.5740356445312	-697.48583984375	998.2219848632812	-605.7250366210938	-857.1846313476562	720.328125	-482.9471130371094	-856.734619140625	793.24365234375	-493.2267761230469	-833.9122314453125	783.7701416015625	-557.1265869140625	-549.0962524414062	1577.041625976562	-462.453369140625	-478.0768737792969	1583.6357421875	-276.2374572753906	-581.7591552734375	1601.442260742188	-334.3516540527344	-404.2829895019531	1548.980346679688	-401.2168273925781	-377.2611389160156	939.5133666992188	-279.2605590820312	-641.122802734375	943.2970581054688	-523.7816162109375	-691.5517578125	955.3128051757812	-388.3535461425781	-487.2090454101562	942.7504272460938	-224.5870666503906	-543.8101806640625	457.1820373535156	-242.1781463623047	-490.0439147949219	591.3328857421875	-243.0177764892578	-603.7108764648438	38.41150283813477	-362.5232543945312	-569.8643188476562	224.7174682617188	-292.6182861328125	-767.3778686523438	45.35878753662109	-210.6383514404297	-751.4229736328125	42.46508026123047	-295.0376586914062	-658.6138305664062	44.72453308105469	-248.2441711425781	-631.2833862304688	35.64888000488281	-422.8224792480469	-746.6588745117188	470.1571350097656	-452.263427734375	-726.4797973632812	724.0453491210938	-451.2494506835938	-534.6842041015625	191.9988708496094	-713.2457885742188	-702.8289184570312	361.8270568847656	-504.0799255371094	-566.5712280273438	46.82068634033203	-611.316162109375	-511.7522277832031	100.0141220092773	-613.3362426757812	-565.1127319335938	113.1078186035156	-699.2723388671875	-459.0780334472656	239.4286804199219	-705.244873046875	
488	4.87	-509.2850341796875	957.4296264648438	-500.9538879394531	-406.6967468261719	946.8519897460938	-416.6822509765625	-460.5988464355469	1038.240478515625	-457.9630737304688	-616.693115234375	1196.20751953125	-283.4997253417969	-452.846435546875	1138.709350585938	-464.7543334960938	-458.754150390625	1389.1181640625	-428.5933227539062	-572.9871826171875	1314.06298828125	-319.8558044433594	-480.5205688476562	1247.064697265625	-509.3367309570312	-374.5829467773438	1346.439453125	-372.1142578125	-396.0574951171875	1360.4189453125	-274.866455078125	-325.5284118652344	1245.613525390625	-259.94189453125	-302.6311340332031	1048.975952148438	-248.5712280273438	-321.5695190429688	1032.234252929688	-330.778076171875	-398.1121520996094	847.640869140625	-181.6896057128906	-318.4950561523438	829.2738647460938	-186.6710815429688	-304.232177734375	947.5993041992188	-226.053466796875	-404.510009765625	669.6893920898438	-166.9655914306641	-339.5487365722656	745.048583984375	-176.1514129638672	-395.8581848144531	752.68212890625	-150.0630950927734	-609.7069702148438	1376.71240234375	-498.1369323730469	-635.7880249023438	1314.022583007812	-551.9351196289062	-659.9945678710938	1055.088745117188	-601.5538330078125	-598.4686279296875	1039.6455078125	-530.3568725585938	-801.052490234375	880.1242065429688	-493.9516906738281	-803.4774169921875	862.1309814453125	-565.9379272460938	-701.751953125	998.365966796875	-599.39892578125	-852.1154174804688	713.0843505859375	-482.47900390625	-853.9540405273438	786.1138305664062	-491.1868591308594	-830.872802734375	778.7657470703125	-555.2349853515625	-555.9629516601562	1577.835693359375	-455.1056823730469	-483.954345703125	1585.021240234375	-269.4945678710938	-588.03369140625	1602.497924804688	-326.8946838378906	-410.8935241699219	1550.204711914062	-394.8771057128906	-381.0747985839844	940.2637939453125	-275.6160278320312	-649.3375854492188	944.0968627929688	-514.7940063476562	-696.8710327148438	956.4803466796875	-378.5931396484375	-489.8935852050781	943.5400390625	-218.2189025878906	-544.4111938476562	456.8926391601562	-240.4285736083984	-491.6790161132812	591.5776977539062	-240.5111389160156	-603.6932373046875	38.39339828491211	-362.5359191894531	-569.9491577148438	224.7444915771484	-292.1733703613281	-767.29736328125	45.39224243164062	-210.67041015625	-751.2599487304688	42.43243408203125	-294.9806823730469	-658.5220947265625	44.64243698120117	-248.2146606445312	-631.3236083984375	35.68756103515625	-422.8894958496094	-759.2546997070312	472.9412841796875	-432.7283935546875	-735.75439453125	726.4793090820312	-437.4856262207031	-558.1698608398438	191.1886749267578	-696.66650390625	-718.0198974609375	363.919677734375	-484.6225280761719	-592.4216918945312	47.91123199462891	-592.317626953125	-535.8982543945312	99.31660461425781	-596.5416259765625	-591.3897705078125	114.1646041870117	-680.8016357421875	-480.7120361328125	235.8641052246094	-691.58837890625	
489	4.88	-517.1848754882812	958.382568359375	-494.9331970214844	-413.2300109863281	948.024169921875	-412.3753662109375	-468.0813598632812	1039.569946289062	-452.1953125	-621.749267578125	1197.209594726562	-275.6763610839844	-459.9250183105469	1139.9697265625	-458.8326110839844	-465.4144592285156	1390.335571289062	-422.2109985351562	-578.4498901367188	1315.037475585938	-312.4896240234375	-487.8458557128906	1248.533813476562	-503.0023193359375	-380.6307373046875	1347.57470703125	-366.66357421875	-401.2217407226562	1361.284423828125	-269.1815185546875	-330.4496459960938	1246.511108398438	-254.6040954589844	-307.3771667480469	1050.121826171875	-241.6630096435547	-326.5398254394531	1032.517333984375	-323.6878356933594	-406.3294982910156	854.0267333984375	-167.6680450439453	-327.1166687011719	833.780029296875	-172.0466461181641	-310.3016052246094	949.9700927734375	-216.1009063720703	-415.3546752929688	677.7803344726562	-140.881103515625	-349.4184265136719	751.2734985351562	-156.4053649902344	-405.3248596191406	761.5309448242188	-130.1449737548828	-617.1506958007812	1377.890258789062	-490.1619262695312	-643.4583129882812	1315.394653320312	-543.8231201171875	-665.8010864257812	1056.470947265625	-594.2233276367188	-603.716552734375	1041.363525390625	-523.6856689453125	-800.9575805664062	874.916748046875	-490.0043640136719	-803.1237182617188	858.5847778320312	-562.3935546875	-706.1571655273438	998.71337890625	-593.0599365234375	-846.5796508789062	706.24365234375	-482.4010925292969	-850.8102416992188	779.271484375	-489.3663635253906	-827.6842651367188	774.22900390625	-553.5875854492188	-562.8099975585938	1578.645385742188	-447.6845703125	-489.7302551269531	1586.333862304688	-262.7120361328125	-594.2302856445312	1603.457275390625	-319.3351745605469	-417.4471435546875	1551.494018554688	-388.5532836914062	-384.7585754394531	940.9227294921875	-272.1602478027344	-657.6268310546875	944.996337890625	-505.6544189453125	-702.0357055664062	957.723388671875	-368.7220764160156	-492.3283081054688	944.3345947265625	-211.9635772705078	-544.8265991210938	456.6190795898438	-238.8438873291016	-493.1434326171875	591.8180541992188	-238.207763671875	-603.6708374023438	38.36812591552734	-362.5401306152344	-569.9171752929688	224.7935943603516	-291.7604675292969	-767.21630859375	45.41201782226562	-210.6844177246094	-751.0868530273438	42.40969848632812	-294.9161071777344	-658.4238891601562	44.55144119262695	-248.1753845214844	-631.3751831054688	35.73178482055664	-422.9413452148438	-770.8593139648438	475.9146728515625	-413.0981750488281	-744.705322265625	729.0242919921875	-423.6126403808594	-581.9445190429688	189.1898040771484	-678.9411010742188	-732.5755615234375	366.029541015625	-464.7998657226562	-618.240478515625	48.71661376953125	-571.2378540039062	-560.1517944335938	97.9710693359375	-578.1473388671875	-617.7650756835938	114.1957931518555	-660.598388671875	-502.7420959472656	230.9243621826172	-677.222412109375	
490	4.89	-525.1637573242188	959.3488159179688	-488.9198608398438	-419.8165893554688	949.1725463867188	-408.1959838867188	-475.5771484375	1040.799926757812	-446.4862365722656	-626.5491943359375	1198.226684570312	-267.7946472167969	-466.8661193847656	1141.194213867188	-453.01171875	-471.9842224121094	1391.505981445312	-415.9102478027344	-583.7124633789062	1316.0556640625	-305.09521484375	-495.1748962402344	1249.9609375	-496.7265625	-386.5752868652344	1348.679077148438	-361.3812255859375	-406.1482849121094	1362.147094726562	-263.6608581542969	-335.1103820800781	1247.425048828125	-249.5372619628906	-311.839111328125	1051.349975585938	-235.1785125732422	-331.3241882324219	1032.832397460938	-317.0000305175781	-414.2578735351562	861.0065307617188	-154.1297149658203	-335.5056762695312	838.8912963867188	-157.7433776855469	-316.107177734375	952.6459350585938	-206.5620269775391	-425.87841796875	687.1431274414062	-115.2445373535156	-359.0557556152344	758.3868408203125	-137.03125	-414.5201110839844	771.3162231445312	-110.8348770141602	-624.5418701171875	1379.052734375	-482.1183166503906	-651.1419067382812	1316.7880859375	-535.6106567382812	-671.755615234375	1057.933471679688	-586.8707885742188	-608.9598999023438	1043.179809570312	-517.1231079101562	-800.721435546875	869.9625244140625	-486.1509704589844	-802.8220825195312	855.4238891601562	-558.9244995117188	-710.71484375	999.2409057617188	-586.6995239257812	-840.58447265625	699.8560791015625	-482.6590576171875	-847.3388671875	772.750244140625	-487.7374267578125	-824.3945922851562	770.1708374023438	-552.1458740234375	-569.64990234375	1579.458251953125	-440.1936645507812	-495.3956298828125	1587.558715820312	-255.8912200927734	-600.3442993164062	1604.30615234375	-311.6733093261719	-423.9450378417969	1552.834350585938	-382.2496032714844	-388.3757019042969	941.5140991210938	-268.8286743164062	-665.9721069335938	945.9467163085938	-496.3819885253906	-707.072265625	959.0023193359375	-358.7654113769531	-494.561767578125	945.126708984375	-205.8319549560547	-545.1051635742188	456.3659057617188	-237.3836975097656	-494.4857788085938	592.0574340820312	-236.0517120361328	-603.6493530273438	38.33959197998047	-362.5362854003906	-569.8048706054688	224.8620300292969	-291.3692016601562	-767.1373291015625	45.40554809570312	-210.6711120605469	-750.9125366210938	42.39791870117188	-294.8460083007812	-658.3212890625	44.45180511474609	-248.1259918212891	-631.4466552734375	35.78049087524414	-422.9796447753906	-781.4900512695312	478.9987487792969	-393.4495544433594	-753.30615234375	731.61328125	-409.7037658691406	-605.9246215820312	186.0706481933594	-660.0626220703125	-746.472412109375	368.0838012695312	-444.6344909667969	-643.7915649414062	49.24889755249023	-548.1547241210938	-584.3258666992188	96.05722045898438	-558.1751098632812	-644.05126953125	113.2695846557617	-638.7090454101562	-525.1654052734375	224.7078704833984	-662.0946044921875	
